<svg width="186" height="223" viewBox="0 0 186 223" fill="none" xmlns="http://www.w3.org/2000/svg">
<path d="M14.5383 78.3499C14.5383 99.1296 22.793 119.058 37.4865 133.752C52.18 148.445 72.1086 156.7 92.8883 156.7C113.668 156.7 133.597 148.445 148.29 133.752C162.984 119.058 171.238 99.1296 171.238 78.3499C171.238 57.5703 162.984 37.6416 148.29 22.9482C133.597 8.2547 113.668 0 92.8883 0C72.1086 0 52.18 8.2547 37.4865 22.9482C22.793 37.6416 14.5383 57.5703 14.5383 78.3499" fill="#EE8968"/>
<path d="M16.9659 78.3499C16.9659 98.4858 24.9649 117.797 39.2031 132.035C53.4413 146.273 72.7525 154.272 92.8883 154.272C113.024 154.272 132.335 146.273 146.574 132.035C160.812 117.797 168.811 98.4858 168.811 78.3499C168.811 58.2141 160.812 38.9029 146.574 24.6647C132.335 10.4265 113.024 2.42755 92.8883 2.42755C72.7525 2.42755 53.4413 10.4265 39.2031 24.6647C24.9649 38.9029 16.9659 58.2141 16.9659 78.3499" fill="#302F4E"/>
<path d="M19.939 78.35C19.939 97.6973 27.6247 116.252 41.3053 129.933C54.986 143.614 73.5409 151.299 92.8882 151.299C112.236 151.299 130.791 143.614 144.471 129.933C158.152 116.252 165.838 97.6973 165.838 78.35C165.838 59.0026 158.152 40.4477 144.471 26.7671C130.791 13.0864 112.236 5.40072 92.8882 5.40072C73.5409 5.40072 54.986 13.0864 41.3053 26.7671C27.6247 40.4477 19.939 59.0026 19.939 78.35" fill="url(#paint0_linear_7_3)"/>
<path d="M156.226 42.1948L148 46.0286C145.891 47.0763 143.575 47.6391 141.221 47.6759C138.867 47.7128 136.535 47.2227 134.395 46.2416C132.65 45.3717 130.732 44.9056 128.782 44.878C126.832 44.8503 124.902 45.2618 123.133 46.0819L111.525 51.4599C109.182 52.5504 106.628 53.1154 104.044 53.1154C101.459 53.1154 98.9056 52.5504 96.5623 51.4599C95.1232 50.7925 93.556 50.4467 91.9697 50.4467C90.3834 50.4467 88.8162 50.7925 87.3771 51.4599L83.1705 53.4301C80.4936 54.6755 77.5768 55.3207 74.6243 55.3207C71.6718 55.3207 68.755 54.6755 66.078 53.4301L54.5233 48.1053C53.125 47.4605 51.6036 47.1266 50.0638 47.1266C48.524 47.1266 47.0026 47.4605 45.6043 48.1053L36.3659 52.3917C35.3486 52.8655 34.2399 53.1109 33.1178 53.1109C31.9956 53.1109 30.8869 52.8655 29.8696 52.3917L25.53 50.3151C22.5773 57.4392 20.7798 64.9887 20.2052 72.6791L29.9229 77.2051C30.9402 77.6789 32.0488 77.9243 33.171 77.9243C34.2932 77.9243 35.4018 77.6789 36.4191 77.2051L45.6309 73.0252C47.0292 72.3804 48.5507 72.0465 50.0904 72.0465C51.6302 72.0465 53.1517 72.3804 54.5499 73.0252L66.1047 78.35C68.7816 79.5953 71.6984 80.2406 74.6509 80.2406C77.6034 80.2406 80.5202 79.5953 83.1972 78.35L87.4037 76.3798C88.8428 75.7124 90.41 75.3666 91.9963 75.3666C93.5826 75.3666 95.1499 75.7124 96.5889 76.3798L101.754 78.7759C102.479 79.1139 103.27 79.2891 104.07 79.2891C104.871 79.2891 105.661 79.1139 106.386 78.7759L123.08 71.0284C124.734 70.22 126.546 69.7865 128.387 69.7589C130.227 69.7313 132.052 70.1102 133.729 70.8687C135.927 71.942 138.337 72.5109 140.783 72.5339C143.229 72.557 145.649 72.0335 147.866 71.0018L158.516 66.0764C160.424 65.1895 162.38 64.4073 164.373 63.7335C162.824 56.1653 160.073 48.8939 156.226 42.1948V42.1948Z" fill="url(#paint1_linear_7_3)"/>
<path d="M156.359 42.4078C152.195 35.0565 146.791 28.481 140.385 22.9724C138.162 22.8902 135.979 22.3557 133.969 21.4016C132.195 20.6239 130.274 20.2425 128.338 20.2839C126.402 20.3253 124.499 20.7885 122.76 21.6412L111.578 26.966C109.235 28.0565 106.681 28.6215 104.097 28.6215C101.512 28.6215 98.9589 28.0565 96.6156 26.966C95.1765 26.2986 93.6093 25.9528 92.023 25.9528C90.4367 25.9528 88.8694 26.2986 87.4304 26.966L83.2238 28.9095C80.5468 30.1549 77.63 30.8002 74.6775 30.8002C71.7251 30.8002 68.8083 30.1549 66.1313 28.9095L54.5766 23.5848C53.1783 22.94 51.6568 22.6061 50.1171 22.6061C48.5773 22.6061 47.0558 22.94 45.6576 23.5848L44.0335 24.3302C35.9376 31.6095 29.5702 40.6056 25.3969 50.6612L29.843 52.7378C30.8603 53.2116 31.9689 53.457 33.0911 53.457C34.2133 53.457 35.3219 53.2116 36.3392 52.7378L45.5777 48.4514C46.976 47.8066 48.4974 47.4727 50.0372 47.4727C51.577 47.4727 53.0984 47.8066 54.4967 48.4514L66.0514 53.7762C68.7284 55.0216 71.6452 55.6668 74.5977 55.6668C77.5502 55.6668 80.467 55.0216 83.1439 53.7762L87.3771 51.7261C88.8162 51.0587 90.3834 50.713 91.9697 50.713C93.556 50.713 95.1233 51.0587 96.5623 51.7261C98.9056 52.8166 101.459 53.3817 104.044 53.3817C106.628 53.3817 109.182 52.8166 111.525 51.7261L123.053 46.4014C124.707 45.593 126.519 45.1595 128.36 45.1319C130.201 45.1043 132.025 45.4832 133.703 46.2416C135.9 47.3149 138.31 47.8839 140.756 47.9069C143.202 47.9299 145.622 47.4065 147.84 46.3747L156.359 42.4078Z" fill="url(#paint2_linear_7_3)"/>
<path d="M92.8882 5.4007C74.5605 5.37979 56.9015 12.2836 43.4478 24.7296L45.6309 23.7179C47.0292 23.0731 48.5506 22.7392 50.0904 22.7392C51.6302 22.7392 53.1516 23.0731 54.5499 23.7179L66.1046 29.0427C68.7816 30.288 71.6984 30.9333 74.6509 30.9333C77.6033 30.9333 80.5202 30.288 83.1971 29.0427L87.4037 27.0725C88.8427 26.4051 90.41 26.0593 91.9963 26.0593C93.5826 26.0593 95.1498 26.4051 96.5889 27.0725C98.9322 28.163 101.486 28.728 104.07 28.728C106.655 28.728 109.208 28.163 111.551 27.0725L123.133 21.7477C124.842 20.9524 126.705 20.5403 128.591 20.5403C130.476 20.5403 132.339 20.9524 134.049 21.7477C136.128 22.7112 138.386 23.2282 140.678 23.2653C127.433 11.7272 110.454 5.38044 92.8882 5.4007V5.4007Z" fill="url(#paint3_linear_7_3)"/>
<path d="M92.8882 5.40069C77.3155 5.37723 62.1478 10.3616 49.6245 19.6178C51.964 29.3264 57.502 37.9655 65.3472 44.1448C73.1923 50.324 82.8884 53.6841 92.8749 53.6841C102.861 53.6841 112.557 50.324 120.403 44.1448C128.248 37.9655 133.786 29.3264 136.125 19.6178C123.609 10.367 108.452 5.38294 92.8882 5.40069Z" fill="url(#paint4_linear_7_3)"/>
<path d="M135.486 22.0406C134.97 21.8541 134.463 21.6408 133.969 21.4016C132.195 20.6239 130.274 20.2425 128.338 20.2839C126.402 20.3253 124.499 20.7885 122.76 21.6412L111.578 26.966C109.235 28.0565 106.681 28.6215 104.097 28.6215C101.512 28.6215 98.9588 28.0565 96.6155 26.966C95.1765 26.2986 93.6092 25.9528 92.0229 25.9528C90.4366 25.9528 88.8694 26.2986 87.4303 26.966L83.2237 28.9095C80.5468 30.1549 77.63 30.8002 74.6775 30.8002C71.725 30.8002 68.8082 30.1549 66.1312 28.9095L54.5765 23.5848C53.3008 22.9311 51.9062 22.5417 50.4764 22.4399C52.8823 30.1558 57.3422 37.0717 63.3783 42.4465C69.4144 47.8213 76.7991 51.4524 84.7413 52.9508L87.4037 51.7261C88.8427 51.0587 90.41 50.713 91.9963 50.713C93.5826 50.713 95.1498 51.0587 96.5889 51.7261C97.8975 52.3261 99.2743 52.7641 100.689 53.0307C108.785 51.5814 116.321 47.9188 122.463 42.4488C128.605 36.9789 133.113 29.9152 135.486 22.0406V22.0406Z" fill="url(#paint5_linear_7_3)"/>
<path d="M22.4949 97.4392C26.6878 112.902 35.8545 126.554 48.5796 136.289C61.3047 146.023 76.8804 151.297 92.9016 151.297C108.923 151.297 124.498 146.023 137.223 136.289C149.949 126.554 159.115 112.902 163.308 97.4392H22.4949Z" fill="url(#paint6_linear_7_3)"/>
<path d="M136.258 86.8163L134.475 86.5235C133.247 86.3229 132.054 85.9463 130.934 85.4053L120.763 80.4799C116.925 78.6606 112.663 77.9242 108.437 78.35L95.9233 79.5214C94.4147 79.6634 92.8971 79.7344 91.3707 79.7344H71.2697C68.5262 79.7428 65.8115 80.2948 63.2825 81.3585L56.5467 84.2072C56.0287 84.4256 55.4947 84.6036 54.9493 84.7397L48.1336 86.3371C47.1243 86.5931 46.255 87.2332 45.7108 88.1209L39.9867 97.386H145.79L142.515 91.2891C141.884 90.1142 140.992 89.0999 139.907 88.3244C138.823 87.5489 137.574 87.0329 136.258 86.8163V86.8163Z" fill="url(#paint7_linear_7_3)"/>
<path d="M92.8883 151.299C98.3801 151.292 103.851 150.622 109.182 149.302L94.1396 135.857H91.6369L76.5945 149.329C81.9266 150.639 87.3975 151.301 92.8883 151.299V151.299Z" fill="url(#paint8_linear_7_3)"/>
<path d="M80.162 52.019C80.162 55.3942 81.5028 58.6311 83.8894 61.0178C86.276 63.4044 89.513 64.7452 92.8882 64.7452C96.2634 64.7452 99.5003 63.4044 101.887 61.0178C104.274 58.6311 105.614 55.3942 105.614 52.019C105.614 48.6438 104.274 45.4068 101.887 43.0202C99.5003 40.6336 96.2634 39.2928 92.8882 39.2928C89.513 39.2928 86.276 40.6336 83.8894 43.0202C81.5028 45.4068 80.162 48.6438 80.162 52.019" fill="url(#paint9_linear_7_3)"/>
<path d="M73.4263 67.0348C73.2899 67.0662 73.161 67.1242 73.047 67.2054C72.933 67.2867 72.8362 67.3896 72.762 67.5082C72.6878 67.6269 72.6378 67.7591 72.6147 67.8971C72.5916 68.0352 72.596 68.1764 72.6276 68.3128C72.5962 68.1764 72.5382 68.0475 72.457 67.9335C72.3757 67.8196 72.2728 67.7227 72.1541 67.6485C72.0355 67.5743 71.9033 67.5243 71.7653 67.5012C71.6272 67.4781 71.486 67.4825 71.3496 67.5141C71.486 67.4827 71.6149 67.4247 71.7289 67.3435C71.8428 67.2623 71.9397 67.1594 72.0139 67.0407C72.088 66.922 72.1381 66.7898 72.1612 66.6518C72.1843 66.5137 72.1799 66.3725 72.1483 66.2361C72.1797 66.3725 72.2377 66.5014 72.3189 66.6154C72.4001 66.7294 72.503 66.8262 72.6217 66.9004C72.7404 66.9746 72.8726 67.0246 73.0106 67.0477C73.1487 67.0708 73.2899 67.0664 73.4263 67.0348V67.0348Z" fill="url(#paint10_linear_7_3)"/>
<path d="M0 204.837V171.914H4.15373V204.837C4.15373 205.38 4.3475 205.845 4.73504 206.232C5.12963 206.62 5.59468 206.813 6.13019 206.813H11.1083V210.978H6.13019C4.4391 210.978 2.99463 210.379 1.79678 209.181C0.598924 207.976 0 206.528 0 204.837ZM19.475 210.978H15.3212V181.553H19.475V210.978ZM15.3212 176.078V171.914H19.475V176.078H15.3212ZM42.8162 181.553V185.717H30.0802V204.837C30.0802 205.38 30.274 205.845 30.6615 206.232C31.0491 206.62 31.5141 206.813 32.0567 206.813H42.8162V210.978H32.0567C30.3304 210.978 28.8753 210.379 27.6916 209.181C26.5078 207.976 25.9159 206.528 25.9159 204.837V171.914H30.0802V181.553H42.8162ZM63.7646 206.919L77.5681 181.553H82.4405L66.1532 210.978H61.3336L45.0992 181.553H49.9716L63.7646 206.919ZM86.8479 181.553H110.692C112.383 181.553 113.831 182.152 115.036 183.35C116.234 184.555 116.833 186.003 116.833 187.694V204.837C116.833 206.528 116.234 207.976 115.036 209.181C113.831 210.379 112.383 210.978 110.692 210.978H91.0122V222.646H86.8479V181.553ZM112.669 204.837V187.694C112.669 187.151 112.475 186.686 112.087 186.298C111.7 185.911 111.235 185.717 110.692 185.717H93.0415C92.499 185.717 92.0233 185.911 91.6147 186.298C91.213 186.686 91.0122 187.151 91.0122 187.694V204.837C91.0122 205.38 91.213 205.845 91.6147 206.232C92.0233 206.62 92.499 206.813 93.0415 206.813H110.692C111.235 206.813 111.7 206.62 112.087 206.232C112.475 205.845 112.669 205.38 112.669 204.837ZM120.534 181.553H144.379C146.07 181.553 147.518 182.152 148.723 183.35C149.921 184.555 150.519 186.003 150.519 187.694V210.978H146.355V187.694C146.355 187.151 146.161 186.686 145.774 186.298C145.386 185.911 144.921 185.717 144.379 185.717H126.728C126.185 185.717 125.71 185.911 125.301 186.298C124.899 186.686 124.699 187.151 124.699 187.694V210.978H120.534V181.553ZM185.523 187.694V188.095H181.316V187.694C181.316 187.151 181.123 186.686 180.735 186.298C180.34 185.911 179.875 185.717 179.34 185.717H161.679C161.136 185.717 160.671 185.911 160.283 186.298C159.896 186.686 159.702 187.151 159.702 187.694V192.207C159.702 192.749 159.896 193.214 160.283 193.602C160.671 193.989 161.136 194.183 161.679 194.183H179.34C181.059 194.183 182.521 194.786 183.726 195.991C184.924 197.188 185.523 198.633 185.523 200.324V204.837C185.523 206.528 184.924 207.976 183.726 209.181C182.521 210.379 181.059 210.978 179.34 210.978H161.679C159.987 210.978 158.543 210.379 157.345 209.181C156.14 207.976 155.538 206.528 155.538 204.837V204.435H159.702V204.837C159.702 205.38 159.896 205.845 160.283 206.232C160.671 206.62 161.136 206.813 161.679 206.813H179.34C179.875 206.813 180.34 206.62 180.735 206.232C181.123 205.845 181.316 205.38 181.316 204.837V200.324C181.316 199.781 181.123 199.316 180.735 198.929C180.34 198.541 179.875 198.347 179.34 198.347H161.679C159.987 198.347 158.543 197.745 157.345 196.54C156.14 195.342 155.538 193.898 155.538 192.207V187.694C155.538 186.003 156.14 184.555 157.345 183.35C158.543 182.152 159.987 181.553 161.679 181.553H179.34C181.059 181.553 182.521 182.152 183.726 183.35C184.924 184.555 185.523 186.003 185.523 187.694Z" fill="#EE8968"/>
<defs>
<linearGradient id="paint0_linear_7_3" x1="92.8882" y1="92.5405" x2="92.8882" y2="-72.5538" gradientUnits="userSpaceOnUse">
<stop stop-color="#FAD994"/>
<stop offset="0.35" stop-color="#EE8968"/>
<stop offset="0.66" stop-color="#C6464F"/>
<stop offset="1" stop-color="#302F4E"/>
</linearGradient>
<linearGradient id="paint1_linear_7_3" x1="92.2493" y1="80.3467" x2="92.2493" y2="-3.67803" gradientUnits="userSpaceOnUse">
<stop stop-color="#FAD994"/>
<stop offset="0.31" stop-color="#EE8968"/>
<stop offset="0.59" stop-color="#C6464F"/>
<stop offset="0.7" stop-color="#302F4E"/>
<stop offset="0.73" stop-color="#302F4E"/>
</linearGradient>
<linearGradient id="paint2_linear_7_3" x1="90.8914" y1="74.3564" x2="90.8914" y2="-12.2509" gradientUnits="userSpaceOnUse">
<stop stop-color="#FAD994"/>
<stop offset="0.28" stop-color="#EE8968"/>
<stop offset="0.51" stop-color="#C6464F"/>
<stop offset="0.85" stop-color="#302F4E"/>
</linearGradient>
<linearGradient id="paint3_linear_7_3" x1="92.0362" y1="57.0509" x2="92.0362" y2="-21.3296" gradientUnits="userSpaceOnUse">
<stop stop-color="#FAD994"/>
<stop offset="0.2" stop-color="#EE8968"/>
<stop offset="0.39" stop-color="#C6464F"/>
<stop offset="0.7" stop-color="#302F4E"/>
</linearGradient>
<linearGradient id="paint4_linear_7_3" x1="92.8882" y1="73.9038" x2="92.8882" y2="11.9501" gradientUnits="userSpaceOnUse">
<stop stop-color="#FAD994"/>
<stop offset="0.28" stop-color="#EE8968"/>
<stop offset="0.58" stop-color="#C6464F"/>
<stop offset="1" stop-color="#302F4E"/>
</linearGradient>
<linearGradient id="paint5_linear_7_3" x1="92.9681" y1="76.5662" x2="92.9681" y2="-11.4256" gradientUnits="userSpaceOnUse">
<stop stop-color="#FAD994"/>
<stop offset="0.16" stop-color="#EE8968"/>
<stop offset="0.42" stop-color="#C6464F"/>
<stop offset="0.9" stop-color="#302F4E"/>
</linearGradient>
<linearGradient id="paint6_linear_7_3" x1="92.8882" y1="239.637" x2="92.8882" y2="65.8634" gradientUnits="userSpaceOnUse">
<stop stop-color="#FAD994"/>
<stop offset="0.35" stop-color="#EE8968"/>
<stop offset="0.62" stop-color="#C6464F"/>
<stop offset="0.96" stop-color="#302F4E"/>
</linearGradient>
<linearGradient id="paint7_linear_7_3" x1="92.8882" y1="111.097" x2="92.8882" y2="45.6293" gradientUnits="userSpaceOnUse">
<stop offset="0.16" stop-color="#FAD994"/>
<stop offset="0.34" stop-color="#EE8968"/>
<stop offset="0.66" stop-color="#C6464F"/>
<stop offset="1" stop-color="#302F4E"/>
</linearGradient>
<linearGradient id="paint8_linear_7_3" x1="92.8883" y1="171.081" x2="92.8883" y2="103.882" gradientUnits="userSpaceOnUse">
<stop stop-color="#FAD994"/>
<stop offset="0.13" stop-color="#EE8968"/>
<stop offset="0.41" stop-color="#C6464F"/>
<stop offset="1" stop-color="#302F4E"/>
</linearGradient>
<linearGradient id="paint9_linear_7_3" x1="92.8882" y1="87.2157" x2="92.8882" y2="-46.2229" gradientUnits="userSpaceOnUse">
<stop offset="0.16" stop-color="#FAD994"/>
<stop offset="0.4" stop-color="#EE8968"/>
<stop offset="0.66" stop-color="#C6464F"/>
<stop offset="1" stop-color="#302F4E"/>
</linearGradient>
<linearGradient id="paint10_linear_7_3" x1="72.1749" y1="71.4011" x2="70.6041" y2="99.5425" gradientUnits="userSpaceOnUse">
<stop stop-color="#FAD994"/>
<stop offset="0.33" stop-color="#EE8968"/>
<stop offset="0.67" stop-color="#C6464F"/>
<stop offset="1" stop-color="#302F4E"/>
</linearGradient>
</defs>
</svg>
