<?xml version="1.0" encoding="UTF-8" standalone="no"?>
<!-- Generator: Adobe Illustrator 21.0.0, SVG Export Plug-In . SVG Version: 6.00 Build 0)  -->

<svg
   xmlns:dc="http://purl.org/dc/elements/1.1/"
   xmlns:cc="http://creativecommons.org/ns#"
   xmlns:rdf="http://www.w3.org/1999/02/22-rdf-syntax-ns#"
   xmlns:svg="http://www.w3.org/2000/svg"
   xmlns="http://www.w3.org/2000/svg"
   xmlns:sodipodi="http://sodipodi.sourceforge.net/DTD/sodipodi-0.dtd"
   xmlns:inkscape="http://www.inkscape.org/namespaces/inkscape"
   version="1.1"
   id="Layer_1"
   x="0px"
   y="0px"
   viewBox="0 0 300 300"
   xml:space="preserve"
   sodipodi:docname="windscribe-square.svg"
   inkscape:version="0.92.4 (5da689c313, 2019-01-14)"
   width="300"
   height="300"><metadata
   id="metadata5046"><rdf:RDF><cc:Work
       rdf:about=""><dc:format>image/svg+xml</dc:format><dc:type
         rdf:resource="http://purl.org/dc/dcmitype/StillImage" /><dc:title></dc:title></cc:Work></rdf:RDF></metadata><defs
   id="defs5044">
	
	

		<linearGradient
   id="SVGID_1_"
   gradientUnits="userSpaceOnUse"
   x1="49.305901"
   y1="-29.194599"
   x2="236.2915"
   y2="157.791"
   gradientTransform="translate(0,52)">
			<stop
   offset="0"
   style="stop-color:#444494"
   id="stop4998" />
			<stop
   offset="0.4883"
   style="stop-color:#3C67A9"
   id="stop5000" />
			<stop
   offset="1"
   style="stop-color:#2BA0CC"
   id="stop5002" />
		</linearGradient>
		
		
		
		<linearGradient
   id="SVGID_2_"
   gradientUnits="userSpaceOnUse"
   x1="149.7536"
   y1="46.969299"
   x2="149.7536"
   y2="96.490402"
   gradientTransform="translate(0,52)">
			<stop
   offset="0"
   style="stop-color:#F0F0F1"
   id="stop5013" />
			<stop
   offset="1"
   style="stop-color:#D0D0D0"
   id="stop5015" />
		</linearGradient>
		
		<linearGradient
   id="SVGID_3_"
   gradientUnits="userSpaceOnUse"
   x1="149.7536"
   y1="47.126499"
   x2="149.7536"
   y2="96.647499"
   gradientTransform="translate(0,52)">
			<stop
   offset="0"
   style="stop-color:#FFFFFF"
   id="stop5020" />
			<stop
   offset="1"
   style="stop-color:#EDEDED"
   id="stop5022" />
		</linearGradient>
		
		
		
	</defs><sodipodi:namedview
   pagecolor="#ffffff"
   bordercolor="#666666"
   borderopacity="1"
   objecttolerance="10"
   gridtolerance="10"
   guidetolerance="10"
   inkscape:pageopacity="0"
   inkscape:pageshadow="2"
   inkscape:window-width="1920"
   inkscape:window-height="1137"
   id="namedview5042"
   showgrid="false"
   inkscape:zoom="1.0566667"
   inkscape:cx="150"
   inkscape:cy="100"
   inkscape:window-x="-8"
   inkscape:window-y="-8"
   inkscape:window-maximized="1"
   inkscape:current-layer="Layer_1" />
<style
   type="text/css"
   id="style4970">
	.st0{fill:#357AC0;}
	.st1{fill:url(#SVGID_1_);}
	.st2{opacity:0.5;}
	.st3{opacity:0.55;fill:#FFFFFF;}
	.st4{fill:url(#SVGID_2_);}
	.st5{fill:url(#SVGID_3_);}
	.st6{opacity:0.4;fill:#231F20;}
	.st7{fill:#FFFFFF;}
</style>
<g
   id="g9601"
   transform="translate(0,-52)"><g
     transform="translate(0,100)"
     id="g4996">
		<path
   class="st0"
   d="m 120,153.8 h -5 c -8.3,0.3 -15,7.1 -15,15.5 0,8.4 6.7,15.2 15,15.5 h 5 v 0 h 6 v -6 -19 -6 -9 h -6 z m 0,24.9 h -5 c -5,-0.3 -9,-4.4 -9,-9.5 0,-5.1 4,-9.2 9,-9.5 0,0 2.4,0 5,0 z"
   id="path4972"
   inkscape:connector-curvature="0"
   style="fill:#357ac0" />
		<path
   class="st0"
   d="m 234.6,153.8 h -5 v -9 h -6 v 9 6 19 6 h 6 v 0 h 5 c 8.3,-0.3 15,-7.1 15,-15.5 0,-8.4 -6.7,-15.3 -15,-15.5 z m 0,24.9 h -5 v -19 c 2.6,0 5,0 5,0 5,0.3 9,4.4 9,9.5 0,5.1 -4,9.2 -9,9.5 z"
   id="path4974"
   inkscape:connector-curvature="0"
   style="fill:#357ac0" />
		<path
   class="st0"
   d="m 46.6,178.7 -12,-13 -12,13 v -25 h -6 v 31 h 5.5 c 1.6,0 3.1,-0.6 4.2,-1.8 l 8.2,-9.2 8.2,9.2 c 1.1,1.1 2.7,1.8 4.2,1.8 h 5.5 v -31 h -6 v 25 z"
   id="path4976"
   inkscape:connector-curvature="0"
   style="fill:#357ac0" />
		<rect
   x="58"
   y="153.7"
   class="st0"
   width="6"
   height="31"
   id="rect4978"
   style="fill:#357ac0" />
		<rect
   x="58"
   y="144.7"
   class="st0"
   width="6"
   height="6"
   id="rect4980"
   style="fill:#357ac0" />
		<rect
   x="211.60001"
   y="153.7"
   class="st0"
   width="6"
   height="31"
   id="rect4982"
   style="fill:#357ac0" />
		<rect
   x="211.60001"
   y="144.7"
   class="st0"
   width="6"
   height="6"
   id="rect4984"
   style="fill:#357ac0" />
		<path
   class="st0"
   d="m 83,153.7 c -2.6,0 -5,0.8 -7,2.1 v -2.1 h -6 v 31 h 6 v -18 c 0,-3.9 3.1,-7 7,-7 3.9,0 7,3.1 7,7 v 18 h 6 v -18 c 0,-7.1 -5.8,-13 -13,-13 z"
   id="path4986"
   inkscape:connector-curvature="0"
   style="fill:#357ac0" />
		<path
   class="st0"
   d="m 168.8,178.7 c -5,0 -9.1,-4.3 -9.1,-9.5 0,-5.2 4.1,-9.5 9.1,-9.5 2.4,0 4.5,1 6.2,2.5 l 4.2,-4.1 c -2.7,-2.7 -6.4,-4.4 -10.4,-4.4 -8.2,0 -14.9,6.9 -14.9,15.5 0,8.6 6.7,15.5 14.9,15.5 4.1,0 7.8,-1.7 10.5,-4.5 l -4.1,-4.2 c -1.6,1.7 -3.9,2.7 -6.4,2.7 z"
   id="path4988"
   inkscape:connector-curvature="0"
   style="fill:#357ac0" />
		<path
   class="st0"
   d="m 197.8,153.7 c -2.6,0 -5,0.8 -7,2.1 v -2.1 h -6 v 31 h 6 v -18 c 0,-3.9 3.1,-7 7,-7 2.2,0 4.1,1 5.4,2.6 l 4.2,-4.2 c -2.3,-2.7 -5.7,-4.4 -9.6,-4.4 z"
   id="path4990"
   inkscape:connector-curvature="0"
   style="fill:#357ac0" />
		<path
   class="st0"
   d="m 277.7,170.3 c 0.1,2.4 -0.7,4.8 -2.5,6.6 -2.6,2.8 -6.6,3.4 -9.9,1.9 l 8.1,-8.5 3.5,-3.7 3.7,-3.9 0.4,-0.4 c -0.6,-1 -1.3,-1.9 -2.2,-2.7 -5.9,-6 -15.3,-6 -20.9,-0.1 -5.6,5.9 -5.4,15.6 0.6,21.6 6,6 15.3,6 20.9,0.1 2.8,-3 4.1,-6.9 4,-10.8 z m -15.6,-6.7 c 2.9,-3 7.3,-3.5 10.9,-1.4 l -12,12.7 c -2.2,-3.7 -1.8,-8.3 1.1,-11.3 z"
   id="path4992"
   inkscape:connector-curvature="0"
   style="fill:#357ac0" />
		<path
   class="st0"
   d="m 138.9,160.4 c 0.5,-0.4 1.1,-0.6 1.7,-0.8 0,0 0.1,0 0.1,0 3.5,-0.7 7.3,2.8 7.3,2.8 l 4.2,-4.1 c -2.7,-2.7 -6.4,-4.4 -10.4,-4.4 -2.5,0 -5.1,0.7 -7,2.1 -0.1,0.1 -0.2,0.2 -0.3,0.3 0,0 -0.1,0.1 -0.1,0.1 -0.5,0.4 -1,0.9 -1.4,1.4 -3.2,3.9 -1.8,9.3 3.1,12.1 0.2,0.1 0.3,0.2 0.5,0.3 l 3.7,2.1 1.9,1.1 0.5,0.3 c 1.8,1 2.3,3 1.1,4.5 -0.2,0.2 -0.3,0.4 -0.5,0.6 -3.6,2.8 -9.1,-2.1 -9.1,-2.1 l -4.2,4.1 c 2.7,2.7 6.4,4.4 10.4,4.4 3.6,0 7,-1.3 8.9,-3.6 0.1,-0.1 0.1,-0.1 0.2,-0.2 3.2,-3.9 1.8,-9.3 -3.1,-12.1 -0.2,-0.1 -0.3,-0.2 -0.5,-0.3 l -1.9,-1.1 -3.7,-2.1 -0.5,-0.3 c -1.8,-1 -2.3,-3 -1.1,-4.5 -0.1,-0.4 0,-0.5 0.2,-0.6 z"
   id="path4994"
   inkscape:connector-curvature="0"
   style="fill:#357ac0" />
	</g><path
     inkscape:connector-curvature="0"
     style="fill:url(#SVGID_1_)"
     id="path5005"
     d="m 146.9,227.8 -34.5,-14.3 c -1.9,-0.8 -3.5,-2.4 -4.3,-4.3 L 93.7,174.4 c -0.8,-1.9 -0.8,-4.1 0,-6.1 l 14.4,-34.6 c 0.8,-1.9 2.3,-3.5 4.3,-4.3 L 147,115.1 c 1.9,-0.8 4.1,-0.8 6.1,0 l 34.6,14.4 c 1.9,0.8 3.5,2.3 4.3,4.3 l 14.4,34.6 c 0.8,1.9 0.8,4.1 0,6.1 L 192,209.3 c -0.8,2 -2.4,3.5 -4.3,4.3 L 153,227.9 c -2,0.7 -4.2,0.7 -6.1,-0.1 z"
     class="st1" /><path
     style="opacity:0.55;fill:#ffffff"
     inkscape:connector-curvature="0"
     id="path5011"
     d="m 206.3,168.4 -14.4,-34.6 c -0.8,-1.9 -2.3,-3.5 -4.3,-4.3 L 153,115.1 c -1,-0.4 -2,-0.6 -3,-0.6 -1,0 -2.1,0.2 -3,0.6 l -34.6,14.4 c -1.9,0.8 -3.5,2.3 -4.3,4.3 l -14.4,34.6 c -0.8,1.9 -0.8,4.1 0,6.1 l 14.4,34.8 c 0.8,1.9 2.4,3.5 4.3,4.3 l 34.5,14.3 c 1,0.4 2,0.6 3,0.6 1,0 2.1,-0.2 3,-0.6 l 34.7,-14.3 c 2,-0.8 3.5,-2.4 4.3,-4.3 l 14.4,-34.8 c 0.8,-2 0.8,-4.2 0,-6.1 z m -7.2,4.1 -13.7,33 c -0.3,0.7 -0.9,1.3 -1.6,1.5 L 151,220.7 c -0.3,0.1 -0.7,0.2 -1.1,0.2 -0.4,0 -0.7,-0.1 -1.1,-0.2 l -32.7,-13.6 c -0.7,-0.3 -1.3,-0.8 -1.5,-1.5 l -13.7,-33 c -0.3,-0.7 -0.3,-1.5 0,-2.2 l 13.7,-32.9 c 0.3,-0.7 0.8,-1.2 1.5,-1.5 l 32.8,-13.6 c 0.3,-0.1 0.7,-0.2 1.1,-0.2 0.4,0 0.7,0.1 1.1,0.2 l 32.8,13.6 c 0.7,0.3 1.2,0.8 1.5,1.5 l 13.6,32.9 c 0.4,0.6 0.4,1.4 0.1,2.1 z"
     class="st3" /><path
     inkscape:connector-curvature="0"
     style="fill:url(#SVGID_2_)"
     id="path5018"
     d="m 178.3,195.6 h -8.8 c -2.5,0 -5,-1 -6.7,-2.8 l -13.1,-14.7 -13.1,14.7 c -1.8,1.8 -4.2,2.8 -6.7,2.8 h -8.8 v -49.2 h 9.5 v 39.7 l 19.1,-20.6 19.1,20.6 v -39.7 h 9.5 z"
     class="st4" /><path
     inkscape:connector-curvature="0"
     style="fill:url(#SVGID_3_)"
     id="path5025"
     d="m 178.3,195.8 h -8.8 c -2.5,0 -5,-1 -6.7,-2.8 l -13.1,-14.7 -13,14.7 c -1.8,1.8 -4.2,2.8 -6.7,2.8 h -8.8 v -49.2 h 9.5 v 39.7 l 19.1,-20.6 19.1,20.6 v -39.7 h 9.5 v 49.2 z"
     class="st5" /><path
     style="opacity:0.4;fill:#231f20"
     inkscape:connector-curvature="0"
     id="path5027"
     d="m 162.8,192.8 -13.1,-14.7 -13.1,14.7 c -1.8,1.8 -4.2,2.8 -6.7,2.8 h -8.8 v 1.4 h 8.8 c 2.5,0 5,-1 6.7,-2.8 l 13.1,-14.7 13.1,14.7 c 1.8,1.8 4.2,2.8 6.7,2.8 h 8.8 v -1.4 h -8.8 c -2.4,0 -4.9,-1 -6.7,-2.8 z"
     class="st6" /><g
     transform="translate(0,100)"
     id="g5035">
			<polygon
   style="fill:#ffffff"
   id="polygon5029"
   points="149.8,65.5 130.7,86.1 130.7,86.6 149.8,66 168.8,86.6 168.8,86.1 "
   class="st7" />
			<rect
   style="fill:#ffffff"
   id="rect5031"
   height="0.5"
   width="9.5"
   class="st7"
   y="46.400002"
   x="121.2" />
			<rect
   style="fill:#ffffff"
   id="rect5033"
   height="0.5"
   width="9.5"
   class="st7"
   y="46.400002"
   x="168.8" />
		</g></g>
</svg>